<?xml version="1.0" encoding="iso-8859-1"?>
<!-- Generator: Adobe Illustrator 19.0.0, SVG Export Plug-In . SVG Version: 6.00 Build 0)  -->
<svg version="1.1" id="Layer_1" xmlns="http://www.w3.org/2000/svg" xmlns:xlink="http://www.w3.org/1999/xlink" x="0px" y="0px"
	 viewBox="0 0 490 490" style="enable-background:new 0 0 490 490;" xml:space="preserve">
<g>
	<g id="XMLID_43_">
		<g>
			<rect x="60" y="270" style="fill:#546A79;" width="30" height="40"/>
			<rect x="400" y="270" style="fill:#546A79;" width="30" height="40"/>
			<polygon style="fill:#FFFFFF;" points="400,270 400,310 400,355 400,480 350,480 350,390 310,390 310,270 			"/>
			<polygon style="fill:#FFFFFF;" points="230,380 230,455 190,455 190,380 190,270 270,270 270,380 			"/>
			<polygon style="fill:#E7ECED;" points="310,390 310,435 270,435 270,380 270,270 310,270 			"/>
			<polygon style="fill:#E7ECED;" points="140,380 140,480 90,480 90,355 90,310 90,270 190,270 190,380 			"/>
			<rect x="105" y="10" style="fill:#FFFFFF;" width="280" height="110"/>
			<path style="fill:#546A79;" d="M245,185c13.799,0,25,11.201,25,25s-11.201,25-25,25c-13.799,0-25-11.201-25-25
				S231.201,185,245,185z"/>
			<path style="fill:#AFB6BB;" d="M10,140c0-10.996,9.004-20,20-20h75h280h75c10.996,0,20,9.004,20,20v215h-80v-45h30v-40h-30h-90
				h-40h-80H90H60v40h30v45H10V155V140z M245,185c-13.799,0-25,11.201-25,25s11.201,25,25,25c13.799,0,25-11.201,25-25
				S258.799,185,245,185z"/>
		</g>
		<g>
			<path style="fill:#231F20;" d="M460,110h-65V10c0-5.523-4.478-10-10-10H105c-5.523,0-10,4.477-10,10v100H30
				c-16.542,0-30,13.458-30,30v215c0,5.522,4.477,10,10,10h70v115c0,5.522,4.477,10,10,10h50c5.523,0,10-4.478,10-10v-90h30v65
				c0,5.522,4.477,10,10,10h40c5.523,0,10-4.478,10-10v-65h20v45c0,5.522,4.477,10,10,10h40c5.522,0,10-4.478,10-10v-35h20v80
				c0,5.522,4.478,10,10,10h50c5.522,0,10-4.478,10-10V365h70c5.522,0,10-4.478,10-10V140C490,123.458,476.542,110,460,110z M115,20
				h260v90H115V20z M80,300H70v-20h10V300z M130,470h-30V280h80v90h-30v-75h-20V470z M220,445h-20V280h60v90h-20v-60h-20V445z
				 M300,425h-20v-45V280h20V425z M390,470h-30V295h-20v85h-20V280h70V470z M410,280h10v20h-10V280z M470,345h-60v-25h20
				c5.522,0,10-4.478,10-10v-40c0-5.522-4.478-10-10-10H60c-5.523,0-10,4.478-10,10v40c0,5.522,4.477,10,10,10h20v25H20V165h355v-20
				H20v-5c0-5.514,4.486-10,10-10h430c5.514,0,10,4.486,10,10V345z"/>
			<rect x="405" y="155" style="fill:#231F20;" width="35" height="20"/>
			<rect x="390" y="185" style="fill:#231F20;" width="50" height="20"/>
			<path style="fill:#231F20;" d="M245,175c-19.299,0-35,15.701-35,35s15.701,35,35,35s35-15.701,35-35S264.299,175,245,175z
				 M245,225c-8.271,0-15-6.729-15-15s6.729-15,15-15s15,6.729,15,15S253.271,225,245,225z"/>
		</g>
	</g>
</g>
<g>
</g>
<g>
</g>
<g>
</g>
<g>
</g>
<g>
</g>
<g>
</g>
<g>
</g>
<g>
</g>
<g>
</g>
<g>
</g>
<g>
</g>
<g>
</g>
<g>
</g>
<g>
</g>
<g>
</g>
</svg>
